<svg xmlns="http://www.w3.org/2000/svg" id="Layer_1" x="0" y="0" version="1.1" viewBox="0 0 264.5 15" xml:space="preserve">
  <defs/>
  <path d="M6.8 12.9c-.7.4-1.5.6-2.5.6-1.3 0-2.3-.4-3.1-1.3S0 10.4 0 9c0-1.5.4-2.7 1.3-3.6s2-1.3 3.4-1.3c.8 0 1.5.1 2.1.4V6c-.7-.4-1.4-.7-2.2-.7-.9 0-1.7.3-2.3 1s-.8 1.5-.8 2.6.3 1.9.8 2.5 1.3.9 2.2.9c.8 0 1.5-.3 2.2-.8v1.4zM13.6 13.5c-1.3 0-2.4-.4-3.2-1.3s-1.2-2-1.2-3.3c0-1.5.4-2.7 1.2-3.5s1.9-1.3 3.3-1.3c1.3 0 2.4.4 3.1 1.2s1.1 2 1.1 3.4-.4 2.6-1.2 3.4-1.7 1.4-3.1 1.4zm.1-8.2c-.9 0-1.7.3-2.2.9s-.8 1.5-.8 2.6.3 1.9.8 2.5 1.3.9 2.2.9c.9 0 1.6-.3 2.1-.9s.8-1.5.8-2.6-.3-2-.8-2.6-1.2-.8-2.1-.8zM28.7 13.3h-1.4V8.2c0-1.9-.7-2.9-2.1-2.9-.7 0-1.3.3-1.8.8s-.7 1.2-.7 2.1v5.1h-1.4v-9h1.4v1.5c.7-1.1 1.7-1.7 3-1.7 1 0 1.7.3 2.3 1s.8 1.6.8 2.8v5.4zM36.5 13.2c-.3.2-.8.3-1.3.3-1.6 0-2.4-.9-2.4-2.6V5.6h-1.5V4.3h1.5V2.1l1.4-.5v2.7h2.3v1.2h-2.3v5.1c0 .6.1 1 .3 1.3s.5.4 1 .4c.4 0 .7-.1.9-.3v1.2zM45.8 13.3h-1.4v-1.4c-.6 1.1-1.5 1.6-2.8 1.6-.9 0-1.6-.2-2.1-.7s-.8-1.1-.8-1.9c0-1.7 1-2.7 3-2.9l2.7-.4c0-1.5-.6-2.3-1.9-2.3-1.1 0-2.1.4-2.9 1.1V5c.9-.6 1.9-.8 3.1-.8 2.1 0 3.2 1.1 3.2 3.4v5.7zm-1.4-4.5l-2.2.3c-.7.1-1.2.3-1.5.5s-.5.7-.5 1.3c0 .4.2.8.5 1.1s.7.4 1.3.4c.7 0 1.3-.3 1.8-.8s.7-1.1.7-1.9v-.9zM55.6 12.9c-.7.4-1.5.6-2.5.6-1.3 0-2.3-.4-3.1-1.3s-1.2-1.9-1.2-3.2c0-1.5.4-2.7 1.3-3.6s2-1.3 3.4-1.3c.8 0 1.5.1 2.1.4V6c-.7-.5-1.4-.7-2.1-.7-.9 0-1.7.3-2.3 1s-.9 1.5-.9 2.6.3 1.9.8 2.5 1.3.9 2.2.9c.8 0 1.5-.3 2.2-.8v1.4zM62.8 13.2c-.3.2-.8.3-1.3.3-1.6 0-2.4-.9-2.4-2.6V5.6h-1.5V4.3h1.5V2.1l1.4-.5v2.7h2.3v1.2h-2.3v5.1c0 .6.1 1 .3 1.3s.5.4 1 .4c.4 0 .7-.1.9-.3v1.2zM69.4 13.5c-1.3 0-2.4-.4-3.2-1.3s-1.2-2-1.2-3.3c0-1.5.4-2.7 1.2-3.5s1.9-1.3 3.3-1.3c1.3 0 2.4.4 3.1 1.2s1.1 2 1.1 3.4-.4 2.6-1.2 3.4-1.7 1.4-3.1 1.4zm.1-8.2c-.9 0-1.7.3-2.2.9s-.8 1.5-.8 2.6.3 1.9.8 2.5 1.3.9 2.2.9c.9 0 1.6-.3 2.1-.9s.8-1.5.8-2.6-.3-2-.8-2.6-1.2-.8-2.1-.8zM85.9 9.6c-.5 1.4-1.3 2.1-2.6 2.1-.8 0-1.4-.3-1.9-.9s-.7-1.4-.7-2.4c0-1.3.3-2.4 1-3.3s1.6-1.3 2.7-1.3c.4 0 .8.1 1.1.3s.5.5.6.9c0-.2 0-.5.1-1h1.1c-.3 3.2-.4 4.9-.4 4.9 0 1.2.3 1.8 1 1.8.6 0 1.2-.3 1.6-1s.6-1.6.6-2.7c0-1.6-.5-2.9-1.5-3.9s-2.4-1.5-4.2-1.5c-1.7 0-3.2.6-4.3 1.8S78.4 6.1 78.4 8c0 1.8.5 3.3 1.6 4.4s2.5 1.7 4.4 1.7c1.4 0 2.7-.2 3.7-.7v1.1c-1 .4-2.3.7-3.8.7-2.1 0-3.9-.6-5.2-1.9s-2-3-2-5c0-2.1.7-3.9 2.1-5.3S82.3.9 84.4.9c2 0 3.6.6 4.9 1.8s2 2.7 2 4.6c0 1.4-.3 2.5-1 3.4S88.8 12 87.8 12c-1.3-.3-1.9-1-1.9-2.4zm-1.6-4.7c-.7 0-1.3.3-1.8 1s-.7 1.5-.7 2.6c0 .7.2 1.2.5 1.6s.7.6 1.2.6c.7 0 1.3-.4 1.7-1.1s.6-1.7.6-2.9c.1-1.2-.5-1.8-1.5-1.8zM94.6 13v-1.5c.8.6 1.6.9 2.6.9 1.3 0 1.9-.4 1.9-1.3 0-.2-.1-.4-.2-.6s-.3-.3-.4-.4-.4-.2-.7-.3-.5-.2-.8-.3c-.4-.2-.7-.3-1-.5s-.6-.3-.8-.5-.4-.4-.5-.7-.2-.6-.2-.9c0-.4.1-.8.3-1.1s.5-.6.8-.8.7-.4 1.1-.5.8-.2 1.3-.2c.8 0 1.5.1 2.1.4V6c-.7-.4-1.4-.7-2.3-.7-.3 0-.5 0-.7.1s-.4.1-.6.3-.3.2-.4.4-.1.3-.1.5 0 .4.1.6.2.3.4.4l.6.3c.2.1.5.2.8.3.4.2.8.3 1.1.5s.6.3.8.5.4.4.5.7.2.6.2.9c0 .4-.1.8-.3 1.2s-.5.6-.8.8-.7.4-1.1.5-.9.2-1.3.2c-.9 0-1.7-.1-2.4-.5zM107.9 13.2c-.3.2-.8.3-1.3.3-1.6 0-2.4-.9-2.4-2.6V5.6h-1.5V4.3h1.5V2.1l1.4-.5v2.7h2.3v1.2h-2.3v5.1c0 .6.1 1 .3 1.3s.5.4 1 .4c.4 0 .7-.1.9-.3v1.2zM118 13.3h-1.4v-1.4c-.6 1.1-1.5 1.6-2.8 1.6-2.1 0-3.2-1.3-3.2-3.8V4.3h1.4v5.2c0 1.9.7 2.8 2.2 2.8.7 0 1.3-.3 1.7-.8s.7-1.2.7-2V4.3h1.4v9zM129.5 13.3H128v-1.5c-.7 1.2-1.7 1.7-3.1 1.7-1.1 0-2-.4-2.7-1.2s-1-1.9-1-3.3c0-1.5.4-2.7 1.1-3.6s1.7-1.3 3-1.3c1.2 0 2.1.5 2.7 1.5V0h1.4v13.3zm-1.5-4V7.9c0-.7-.2-1.3-.7-1.8s-1.1-.8-1.8-.8c-.9 0-1.6.3-2.1 1s-.8 1.5-.8 2.7c0 1 .2 1.9.7 2.5s1.1.9 1.9.9c.8 0 1.5-.3 2-.9s.8-1.4.8-2.2zM134 2c-.3 0-.5-.1-.7-.3s-.3-.4-.3-.7.1-.5.3-.7.4-.3.7-.3c.3 0 .5.1.7.3s.3.4.3.7c0 .3-.1.5-.3.7s-.4.3-.7.3zm.7 11.3h-1.4v-9h1.4v9zM142.3 13.5c-1.3 0-2.4-.4-3.2-1.3s-1.2-2-1.2-3.3c0-1.5.4-2.7 1.2-3.5s1.9-1.3 3.3-1.3c1.3 0 2.4.4 3.1 1.2s1.1 2 1.1 3.4-.4 2.6-1.2 3.4-1.7 1.4-3.1 1.4zm.1-8.2c-.9 0-1.7.3-2.2.9s-.8 1.5-.8 2.6.3 1.9.8 2.5 1.3.9 2.2.9c.9 0 1.6-.3 2.1-.9s.8-1.5.8-2.6-.3-2-.8-2.6-1.1-.8-2.1-.8zM162.8 13.3h-1.4V8.2c0-1-.2-1.7-.5-2.2-.3-.4-.8-.7-1.6-.7-.6 0-1.1.3-1.6.8-.4.6-.6 1.2-.6 2v5.1h-1.4V8c0-1.8-.7-2.7-2-2.7-.6 0-1.2.3-1.6.8s-.6 1.2-.6 2.1v5.1H150v-9h1.4v1.4c.6-1.1 1.6-1.6 2.8-1.6.6 0 1.2.2 1.6.5s.8.8.9 1.3c.7-1.2 1.7-1.9 3-1.9 2 0 3 1.2 3 3.7v5.6zM172.8 13.3h-1.4v-1.4c-.6 1.1-1.5 1.6-2.8 1.6-.9 0-1.6-.2-2.1-.7s-.8-1.1-.8-1.9c0-1.7 1-2.7 3-2.9l2.7-.4c0-1.5-.6-2.3-1.9-2.3-1.1 0-2.1.4-2.9 1.1V5c.9-.6 1.9-.8 3.1-.8 2.1 0 3.2 1.1 3.2 3.4v5.7zm-1.4-4.5l-2.2.3c-.7.1-1.2.3-1.5.5s-.5.7-.5 1.3c0 .4.2.8.5 1.1.3.3.7.4 1.3.4.7 0 1.3-.3 1.8-.8s.7-1.1.7-1.9v-.9zM183.7 13.3h-1.4v-1.4c-.6 1.1-1.5 1.6-2.8 1.6-2.1 0-3.2-1.3-3.2-3.8V4.3h1.4v5.2c0 1.9.7 2.8 2.2 2.8.7 0 1.3-.3 1.7-.8s.7-1.2.7-2V4.3h1.4v9zM189 13.3h-1.4V0h1.4v13.3zM200 9.2h-6.4c0 1 .3 1.8.8 2.3s1.2.8 2.1.8c1 0 1.9-.3 2.8-1v1.4c-.8.6-1.8.9-3.1.9s-2.3-.4-3-1.2-1.1-2-1.1-3.4.4-2.5 1.2-3.4c.8-.9 1.8-1.3 3-1.3s2.1.4 2.7 1.1 1 1.8 1 3.2v.6zM198.6 8c0-.8-.2-1.5-.6-1.9-.4-.5-.9-.7-1.6-.7-.7 0-1.3.2-1.7.7s-.8 1.1-.9 1.9h4.8zM203.6 13.5c-.3 0-.5-.1-.7-.3s-.3-.4-.3-.7.1-.5.3-.7.4-.3.7-.3c.3 0 .5.1.7.3s.3.4.3.7-.1.5-.3.7-.4.3-.7.3zM214.1 12.9c-.7.4-1.5.6-2.5.6-1.3 0-2.3-.4-3.1-1.3s-1.2-1.9-1.2-3.2c0-1.5.4-2.7 1.3-3.6s2-1.3 3.4-1.3c.8 0 1.5.1 2.1.4V6c-.7-.5-1.4-.7-2.1-.7-.9 0-1.7.3-2.3 1-.6.7-.9 1.5-.9 2.6s.3 1.9.8 2.5c.6.6 1.3.9 2.2.9.8 0 1.5-.3 2.2-.8v1.4zM220.9 13.5c-1.3 0-2.4-.4-3.2-1.3-.8-.8-1.2-2-1.2-3.3 0-1.5.4-2.7 1.2-3.5s1.9-1.3 3.3-1.3c1.3 0 2.4.4 3.1 1.2.8.8 1.1 2 1.1 3.4s-.4 2.6-1.2 3.4c-.6 1-1.7 1.4-3.1 1.4zm.1-8.2c-.9 0-1.7.3-2.2.9s-.8 1.6-.8 2.7.3 1.9.8 2.5 1.3.9 2.2.9c.9 0 1.6-.3 2.1-.9.5-.6.8-1.5.8-2.6s-.3-2-.8-2.6c-.4-.6-1.2-.9-2.1-.9zM241.4 13.3H240V8.2c0-1-.2-1.7-.5-2.2-.3-.4-.8-.7-1.6-.7-.6 0-1.1.3-1.6.8-.4.6-.6 1.2-.6 2v5.1h-1.4V8c0-1.8-.7-2.7-2-2.7-.6 0-1.2.3-1.6.8s-.7 1.2-.7 2.1v5.1h-1.4v-9h1.4v1.4c.6-1.1 1.6-1.6 2.8-1.6.6 0 1.2.2 1.6.5s.8.8.9 1.3c.7-1.2 1.7-1.9 3-1.9 2 0 3 1.2 3 3.7v5.6zM245.5 13.5c-.3 0-.5-.1-.7-.3s-.3-.4-.3-.7.1-.5.3-.7.4-.3.7-.3c.3 0 .5.1.7.3s.3.4.3.7-.1.5-.3.7-.4.3-.7.3zM256.2 13.3h-1.4v-1.4c-.6 1.1-1.5 1.6-2.8 1.6-.9 0-1.6-.2-2.1-.7s-.8-1.1-.8-1.9c0-1.7 1-2.7 3-2.9l2.7-.4c0-1.5-.6-2.3-1.9-2.3-1.1 0-2.1.4-2.9 1.1V5c.9-.6 1.9-.8 3.1-.8 2.1 0 3.2 1.1 3.2 3.4v5.7zm-1.4-4.5l-2.2.3c-.7.1-1.2.3-1.5.5s-.5.7-.5 1.3c0 .4.2.8.5 1.1.3.3.7.4 1.3.4.7 0 1.3-.3 1.8-.8s.7-1.1.7-1.9v-.9zM264.5 5.8c-.3-.2-.6-.3-1.1-.3-.6 0-1.1.3-1.5.9-.4.6-.6 1.4-.6 2.4v4.6h-1.4v-9h1.4v1.9c.2-.6.5-1.1.9-1.5s.9-.5 1.4-.5c.4 0 .7 0 .9.1v1.4z" class="st0"/>
</svg>
