<?xml version="1.0" standalone="no"?>
<!DOCTYPE svg PUBLIC "-//W3C//DTD SVG 20010904//EN"
 "http://www.w3.org/TR/2001/REC-SVG-20010904/DTD/svg10.dtd">
<svg version="1.0" xmlns="http://www.w3.org/2000/svg"
 width="712.000000pt" height="712.000000pt" viewBox="0 0 712.000000 712.000000"
 preserveAspectRatio="xMidYMid meet">
<metadata>
Created by potrace 1.11, written by Peter Selinger 2001-2013
</metadata>
<g transform="translate(0.000000,712.000000) scale(0.100000,-0.100000)"
fill="#000000" stroke="none">
<path d="M1400 7109 c-82 -15 -104 -20 -180 -40 -95 -26 -353 -128 -362 -143
-4 -6 -8 -8 -8 -3 0 13 -291 -142 -395 -211 -215 -142 -348 -330 -354 -502 -2
-63 19 -109 160 -352 22 -36 39 -69 39 -72 0 -3 16 -30 35 -60 19 -30 35 -60
35 -66 0 -5 5 -10 11 -10 5 0 8 -4 5 -9 -3 -5 1 -14 9 -21 8 -7 15 -19 15 -26
0 -8 4 -14 9 -14 5 0 11 -8 14 -17 6 -18 17 -37 122 -207 33 -53 65 -106 71
-117 6 -10 18 -27 27 -36 8 -10 16 -22 18 -28 1 -5 19 -36 40 -67 22 -31 39
-61 39 -67 0 -5 4 -11 8 -13 9 -3 194 -308 257 -423 214 -392 317 -614 307
-660 -1 -5 7 1 19 15 11 14 32 37 45 52 13 15 24 30 24 34 0 9 182 187 234
229 77 62 175 124 256 165 88 45 200 91 200 83 0 -3 6 -1 13 5 6 5 28 13 47
18 50 11 50 11 53 14 5 4 131 30 177 35 19 3 53 8 75 11 22 4 96 8 165 10 69
1 128 3 132 3 4 1 -7 25 -25 54 -17 29 -37 61 -44 72 -21 35 -86 169 -100 205
-24 62 -135 399 -147 445 -2 6 -6 17 -9 25 -3 8 -29 89 -57 180 -29 91 -64
199 -77 240 -14 41 -26 80 -27 85 -2 6 -8 22 -14 38 -7 15 -14 38 -16 50 -5
24 -13 51 -26 82 -5 11 -34 97 -65 190 -53 158 -78 232 -125 360 -21 58 -27
77 -28 88 -1 4 -8 20 -15 35 -8 15 -19 38 -24 52 -66 170 -149 251 -293 284
-63 15 -200 17 -270 5z"/>
<path d="M6769 4775 c-2 -14 1 -27 25 -114 41 -150 38 -319 -10 -465 -59 -181
-192 -358 -424 -566 -112 -100 -125 -112 -147 -130 -18 -15 -117 -97 -158
-131 -207 -174 -305 -280 -335 -359 -17 -46 -20 -132 -7 -178 17 -58 74 -142
139 -204 52 -50 256 -198 273 -198 3 0 11 -5 18 -10 7 -6 81 -55 165 -110 140
-92 272 -206 310 -265 81 -129 61 -260 -60 -386 -29 -30 -80 -75 -113 -99 -33
-25 -62 -47 -65 -50 -8 -8 -46 -29 -146 -82 -109 -57 -259 -115 -494 -192 -96
-32 -182 -60 -190 -63 -8 -4 -17 -7 -20 -7 -3 -1 -52 -19 -110 -40 -133 -48
-344 -149 -392 -188 -56 -44 -67 -110 -28 -164 32 -45 333 -194 391 -194 9 0
19 -3 23 -7 3 -4 12 -8 19 -9 7 -1 39 -9 72 -17 33 -9 80 -20 105 -26 37 -8
88 -20 110 -26 6 -1 77 -15 105 -21 17 -3 210 -48 255 -59 8 -2 15 -4 15 -5 0
-1 8 -3 18 -6 9 -2 23 -5 30 -7 71 -17 238 -88 306 -130 l35 -21 -50 -13 c-27
-8 -57 -16 -67 -18 -10 -2 -28 -7 -39 -11 -11 -3 -30 -7 -41 -8 -12 -2 -35 -6
-52 -9 -16 -4 -43 -9 -60 -12 -16 -3 -43 -8 -60 -11 -16 -3 -43 -7 -60 -9
-253 -24 -254 -24 -475 -24 -217 0 -268 2 -420 14 -52 4 -111 9 -130 10 -50 3
-181 16 -210 20 -14 2 -54 7 -90 10 -36 4 -76 8 -90 10 -14 2 -59 6 -100 10
-41 3 -86 8 -100 11 -14 2 -59 6 -100 10 -81 6 -121 11 -125 16 -2 2 -6 23 -9
48 -3 25 -8 56 -10 70 -4 25 -25 158 -41 260 -2 14 -6 45 -9 70 -3 25 -9 68
-13 95 -8 59 -8 351 1 415 3 25 11 79 17 120 22 143 17 289 -11 310 -4 3 -31
41 -61 85 -29 44 -57 82 -61 83 -5 2 -8 8 -8 13 0 6 -17 36 -37 67 -21 32 -43
66 -50 77 -7 11 -36 61 -66 110 -30 50 -67 113 -82 140 -16 28 -38 66 -50 85
-12 19 -39 67 -60 105 -21 39 -58 106 -82 150 -24 44 -56 105 -71 135 -15 30
-30 57 -33 60 -3 3 -84 163 -180 355 -96 193 -183 360 -195 371 -25 26 -95 58
-149 69 -60 11 -186 14 -236 5 -24 -5 -57 -10 -74 -13 -16 -2 -72 -19 -124
-36 -205 -69 -366 -181 -428 -298 -44 -81 -49 -130 -23 -201 12 -31 23 -64 25
-72 4 -15 62 -187 290 -855 64 -187 117 -344 119 -350 7 -31 30 -92 39 -103 5
-6 7 -12 4 -12 -3 0 19 -71 49 -157 31 -87 59 -171 64 -188 17 -63 33 -101 54
-123 21 -24 90 -62 111 -62 27 0 307 -120 325 -140 3 -3 25 -16 50 -29 57 -31
187 -122 273 -191 124 -98 354 -330 457 -458 77 -97 122 -134 141 -115 5 5 2
22 -7 38 -8 17 -15 30 -14 30 3 0 -18 50 -43 105 -14 30 -34 75 -45 100 -69
157 -84 189 -136 304 -20 43 -36 85 -36 92 0 8 -4 14 -10 14 -5 0 -10 6 -10
14 0 8 -9 31 -20 53 -11 21 -49 106 -86 188 -36 83 -75 170 -86 195 -12 25
-21 47 -20 50 0 3 -6 16 -13 30 -22 42 -85 177 -85 183 0 3 -18 44 -40 91 -26
55 -47 87 -61 91 -78 25 -155 164 -137 250 5 22 9 46 10 52 3 24 47 56 83 60
64 7 128 -37 176 -122 17 -31 23 -56 23 -108 0 -37 -5 -72 -12 -79 -7 -7 -8
-17 -1 -30 5 -10 7 -18 3 -18 -3 0 -2 -6 3 -12 6 -7 61 -128 123 -268 62 -140
128 -288 146 -328 19 -41 34 -76 34 -78 0 -2 21 -50 46 -106 64 -143 77 -172
117 -263 19 -44 46 -106 61 -137 14 -31 26 -59 26 -62 0 -3 17 -42 39 -88 61
-132 60 -130 22 -134 -41 -5 -35 -13 30 -43 80 -36 185 -64 319 -86 25 -4 54
-9 65 -11 20 -4 80 -11 165 -19 44 -4 93 -9 195 -20 28 -3 77 -8 110 -10 33
-3 78 -7 100 -10 22 -2 67 -7 100 -10 33 -3 83 -7 110 -10 28 -2 84 -8 125
-12 158 -15 729 -8 825 11 11 2 49 7 85 10 36 4 77 9 90 11 14 3 45 7 70 10
25 3 58 8 73 11 16 3 38 7 50 9 38 5 101 16 129 21 15 3 38 18 52 34 45 54 21
133 -62 205 -115 100 -260 182 -405 230 -77 25 -287 79 -342 89 -41 6 -124 23
-133 26 -17 6 -29 9 -57 13 -43 7 -79 15 -170 38 -99 25 -97 25 -115 32 -8 3
-33 11 -54 18 -22 6 -60 21 -84 31 -52 23 -52 24 63 69 44 17 94 37 110 45 71
32 129 54 141 54 8 0 14 5 14 12 0 6 3 9 6 6 4 -5 52 14 222 88 17 8 47 20 65
28 68 30 213 98 247 115 171 90 211 112 256 138 78 47 139 87 142 96 2 4 8 7
13 7 13 0 142 103 189 150 113 114 163 208 166 315 2 59 -2 80 -27 135 -16 35
-33 67 -37 70 -4 3 -20 20 -35 38 -15 19 -46 49 -70 68 -23 20 -51 42 -61 51
-20 16 -184 113 -191 113 -15 0 -342 166 -392 199 -159 105 -217 220 -167 334
35 81 94 146 224 248 41 33 82 66 91 74 9 8 21 15 27 15 7 0 12 5 12 10 0 6 6
10 14 10 8 0 16 3 18 8 2 4 41 37 88 74 80 63 200 181 200 198 0 4 7 10 15 14
8 3 15 12 15 19 0 8 7 20 15 27 38 31 124 210 149 308 32 122 38 292 16 414
-7 34 -14 74 -17 88 -19 107 -137 372 -144 325z"/>
<path d="M2520 4489 c-161 -20 -238 -37 -340 -74 -19 -7 -39 -14 -45 -15 -11
-3 -52 -17 -75 -27 -8 -3 -17 -7 -20 -7 -3 -1 -45 -23 -95 -49 -199 -105 -415
-292 -534 -465 l-23 -33 22 -82 c11 -45 23 -89 25 -97 11 -39 26 -99 34 -135
24 -107 46 -173 73 -218 35 -60 58 -81 119 -108 30 -13 54 -33 70 -59 45 -72
129 -120 256 -145 l31 -6 -13 46 c-8 25 -13 69 -11 98 3 56 25 127 38 127 4 0
8 6 8 14 0 8 28 43 63 79 79 82 186 148 342 212 11 4 29 10 39 12 11 2 24 7
30 12 28 22 196 55 295 57 142 3 227 -28 303 -111 l27 -30 25 30 c61 73 83
200 50 286 -17 45 -18 58 -14 121 3 37 -25 118 -41 118 -4 0 -17 16 -30 36
-12 20 -29 43 -39 52 -19 20 -112 150 -199 280 l-62 93 -127 -3 c-70 -1 -152
-5 -182 -9z"/>
</g>
</svg>
