<?xml version="1.0" encoding="utf-8"?>
<!-- Generator: Adobe Illustrator 23.0.2, SVG Export Plug-In . SVG Version: 6.00 Build 0)  -->
<svg version="1.1" xmlns="http://www.w3.org/2000/svg" xmlns:xlink="http://www.w3.org/1999/xlink" x="0px" y="0px"
	 viewBox="0 0 100 100" style="enable-background:new 0 0 100 100;" xml:space="preserve">
<g id="Layer_2">
</g>
<g id="Layer_1">
	<path d="M63.8,22.2H36.2C21.6,22.2,9.7,34,9.7,48.6v2.7c0,14.6,12,26.5,26.5,26.5h27.7c14.6,0,26.5-11.9,26.5-26.5v-2.7
		C90.3,34,78.4,22.2,63.8,22.2z M31.1,55.9c-3.2,0-5.9-2.6-5.9-5.9s2.6-5.9,5.9-5.9s5.9,2.6,5.9,5.9S34.3,55.9,31.1,55.9z M50,55.9
		c-3.2,0-5.9-2.6-5.9-5.9s2.6-5.9,5.9-5.9c3.2,0,5.9,2.6,5.9,5.9S53.2,55.9,50,55.9z M68.9,55.9c-3.2,0-5.9-2.6-5.9-5.9
		s2.6-5.9,5.9-5.9c3.2,0,5.9,2.6,5.9,5.9S72.2,55.9,68.9,55.9z"/>
</g>
</svg>
