<svg id="b6e3e0c4-4b91-4479-accb-349d03a39f01" data-name="Layer 1" xmlns="http://www.w3.org/2000/svg" width="532.333" height="185.659" viewBox="0 0 532.333 185.659"><defs><style>.b5d309e4-5bfb-4639-9e3f-545bc9f3fec9{fill:#231f20;}</style></defs><title>logo_composite_SVG</title><path class="b5d309e4-5bfb-4639-9e3f-545bc9f3fec9" d="M200.414,25.66a10.647,10.647,0,0,0,1.1,5.112,10.254,10.254,0,0,0,3.354,3.573,25.849,25.849,0,0,0,5.715,2.8q3.462,1.261,8.188,2.692,4.065,1.316,8.023,2.965a28.083,28.083,0,0,1,7.088,4.231,18.515,18.515,0,0,1,6.869,15.222,19.076,19.076,0,0,1-2.2,9.508,18.18,18.18,0,0,1-5.822,6.319,25.187,25.187,0,0,1-8.408,3.519,45.008,45.008,0,0,1-10.057,1.1,46.771,46.771,0,0,1-12.419-1.538,52.757,52.757,0,0,1-10.111-3.846L191.3,75.89l1.865-11.761h2.75l.551.657q.549,6.708,5.384,9.838t13.188,3.131q8.573,0,12.915-3.9A13.024,13.024,0,0,0,232.29,63.69a11.711,11.711,0,0,0-1.65-6.43,15.042,15.042,0,0,0-4.342-4.4,26.963,26.963,0,0,0-6.154-3.023q-3.461-1.208-6.981-2.42a80.621,80.621,0,0,1-8.188-3.13,29.031,29.031,0,0,1-6.591-4.012,15.975,15.975,0,0,1-5.993-13.08,19.149,19.149,0,0,1,1.816-8.734,15.705,15.705,0,0,1,5-5.827A21.1,21.1,0,0,1,206.625,9.4a40.371,40.371,0,0,1,9.177-.989,54.878,54.878,0,0,1,11.211,1.1,39.845,39.845,0,0,1,8.573,2.639l.438,1.207-1.538,9.781h-3.077l-.55-.55a7.333,7.333,0,0,0-1.869-4.615,11.785,11.785,0,0,0-3.9-2.746,17.405,17.405,0,0,0-4.838-1.32,36.683,36.683,0,0,0-4.557-.33q-7.152,0-11.212,3.13T200.414,25.66Z"/><path class="b5d309e4-5bfb-4639-9e3f-545bc9f3fec9" d="M283.154,36.1H268.87q0,7.143-.058,13.187T268.758,59.9q0,4.561-.053,7.307t-.059,3.408q0,4.287,1.651,5.715a5.685,5.685,0,0,0,3.846,1.427,16,16,0,0,0,4.342-.711,18.5,18.5,0,0,0,4.011-1.6l.989.769-.989,3.077a17.666,17.666,0,0,1-5.661,2.585,22.116,22.116,0,0,1-5.55.823q-5.6,0-7.911-3.077a12.826,12.826,0,0,1-2.308-7.911q0-.993.108-4.069t.219-7.692q.114-4.615.223-10.662t.108-13.187h-7.911l-.443-.551V33.464l.443-.438,7.911-1.539q0-3.843-.166-7.857t-.384-7.857l.769-.662L263.481,15q.879-.114,2.858-.443a9.063,9.063,0,0,0,2.75-.769l.989.438a34.769,34.769,0,0,0-.551,3.506c-.147,1.328-.272,2.75-.384,4.257s-.184,3.055-.219,4.638-.054,3.09-.054,4.525h14.284l.55.112v4.284Z"/><path class="b5d309e4-5bfb-4639-9e3f-545bc9f3fec9" d="M341.382,71.932a25.12,25.12,0,0,1-7.307,7.638,19.039,19.039,0,0,1-10.938,3.024,25.574,25.574,0,0,1-6.1-.716,17,17,0,0,1-5.388-2.361,14.8,14.8,0,0,1-4.231-4.4,19.2,19.2,0,0,1-2.527-6.927,29.014,29.014,0,0,1-.5-5.988q.054-3.134-.054-6.319,0-1.43-.053-3.9t-.059-5.054V38.96a4.183,4.183,0,0,0-.545-2.142c-.371-.622-.662-1.082-.881-1.373a4.656,4.656,0,0,0-2.746-1.485,20.736,20.736,0,0,0-3.408-.277l-.331-.443V31.675l.331-.407h6.7a29.939,29.939,0,0,0,4.946-.353l3.846-.581.657.988a5.035,5.035,0,0,0-.326,1.6c-.076.77-.148,1.6-.224,2.478s-.107,1.722-.107,2.531V39.8c0,1.244-.018,2.621-.054,4.124s-.076,3.027-.112,4.57-.071,3-.111,4.4-.054,2.567-.054,3.52q0,2.421.165,5.447a28.273,28.273,0,0,0,.716,5.228,12.312,12.312,0,0,0,4.5,7.7,12.9,12.9,0,0,0,7.916,2.532,14.281,14.281,0,0,0,6.265-1.373,20.312,20.312,0,0,0,5-3.354,19.918,19.918,0,0,0,3.515-4.231,14.492,14.492,0,0,0,1.815-4.119V49.952q0-2.307-.053-3.9c-.041-1.06-.076-1.994-.112-2.8s-.076-1.543-.112-2.2-.089-1.355-.161-2.089a10.483,10.483,0,0,0-.608-2.142,4.127,4.127,0,0,0-.711-1.266,4.449,4.449,0,0,0-2.75-1.592,20.745,20.745,0,0,0-3.408-.277l-.438-.443V31.675l.438-.407h6.7a27.953,27.953,0,0,0,4.839-.353l3.846-.581.657.988a5.064,5.064,0,0,0-.326,1.6q-.114,1.155-.219,2.478c-.076.881-.112,1.722-.112,2.531V39.8q0,.879-.054,1.651c-.04.514-.058,1.135-.058,1.869s-.018,1.6-.053,2.589-.054,2.29-.054,3.9v12.33q0,2.421.054,3.957t.111,2.643q.054,1.1.108,2.035c.036.626.058,1.306.058,2.035a21.352,21.352,0,0,0,.545,3.685,3.04,3.04,0,0,0,1.1,1.7,4.084,4.084,0,0,0,2.584,1.042q1.7.166,3.462.165l.438.438.219,1.539-.219.442a26.175,26.175,0,0,0-4.284-.331h-4.508q-4.179,0-7.584.22l-.658-1.1q.328-1.422.716-3.734t.6-4.727Z"/><path class="b5d309e4-5bfb-4639-9e3f-545bc9f3fec9" d="M411.261,80.612a26.229,26.229,0,0,0,.6-3.626q.274-2.415.5-4.285l-.112-.438a25.421,25.421,0,0,1-7.584,7.473,18.884,18.884,0,0,1-10.331,2.858,24.685,24.685,0,0,1-10.826-2.2,21.208,21.208,0,0,1-7.473-5.822,24.526,24.526,0,0,1-4.338-8.3,32.91,32.91,0,0,1-1.431-9.727,31.308,31.308,0,0,1,2.307-12.691,25.154,25.154,0,0,1,5.827-8.466,22.183,22.183,0,0,1,7.746-4.722,24.32,24.32,0,0,1,8.081-1.485,22.79,22.79,0,0,1,10.111,2.361,20.175,20.175,0,0,1,8.242,7.969l.219-.438q-.221-2.529-.219-4.892V21.649q0-3.132-.054-5.438t-.111-4.065c-.036-1.172-.094-2.348-.166-3.519a5.122,5.122,0,0,0-.6-2.089,13.393,13.393,0,0,0-.822-1.319,4.935,4.935,0,0,0-2.751-1.539,17.411,17.411,0,0,0-3.407-.33l-.439-.443V1.453l.439-.518h6.7a29.9,29.9,0,0,0,4.946-.354L420.165,0l.657.988a5.925,5.925,0,0,0-.385,1.6,24.384,24.384,0,0,0-.219,2.473c-.04.881-.076,1.722-.112,2.531s-.053,1.431-.053,1.869c0,1.176-.018,2.272-.054,3.3s-.058,2.236-.058,3.626-.018,3.082-.054,5.063-.053,4.508-.053,7.589V53.011q0,4.621.053,7.594T420,65.663c.036,1.4.072,2.6.107,3.631s.094,2.2.166,3.515a21.644,21.644,0,0,0,.55,3.685,3.354,3.354,0,0,0,.988,1.7,4.536,4.536,0,0,0,2.639,1.042,33.944,33.944,0,0,0,3.407.165l.439.438.219,1.539-.219.442a25.832,25.832,0,0,0-4.231-.331H419.5q-4.065,0-7.473.22ZM378.62,56.325a27.981,27.981,0,0,0,.988,7.365,20.235,20.235,0,0,0,2.969,6.427A14.458,14.458,0,0,0,395,76.328,16.856,16.856,0,0,0,402.3,74.79a19.206,19.206,0,0,0,5.438-3.739,18.935,18.935,0,0,0,3.466-4.615,10.9,10.9,0,0,0,1.373-4.177V50.06a15.415,15.415,0,0,0-1.373-4.285,19.178,19.178,0,0,0-3.3-4.892,18.937,18.937,0,0,0-5.273-4.011,15.71,15.71,0,0,0-7.419-1.646,14.807,14.807,0,0,0-7.531,1.811,15.743,15.743,0,0,0-5.165,4.781,20.491,20.491,0,0,0-2.965,6.757A32.134,32.134,0,0,0,378.62,56.325Z"/><path class="b5d309e4-5bfb-4639-9e3f-545bc9f3fec9" d="M465.313,81.932q-.772,0-2.308-.108c-1.028-.076-2.124-.111-3.3-.111H441.244l-.111-.22.111-1.538.439-.438c1.171,0,2.325-.058,3.461-.166a4.078,4.078,0,0,0,2.585-1.046,3.614,3.614,0,0,0,1.154-1.977,29.844,29.844,0,0,0,.5-3.407q.108-1.758.219-3.574t.107-5.768V46.16q0-1.59-.053-2.8c-.036-.8-.072-1.538-.112-2.2s-.089-1.355-.161-2.088a8.9,8.9,0,0,0-.662-2.147,4.765,4.765,0,0,0-.769-1.261,4.441,4.441,0,0,0-2.746-1.6,21.186,21.186,0,0,0-3.408-.273l-.438-.447V31.787l.438-.411h6.7a30.43,30.43,0,0,0,4.946-.345l3.846-.572.662.917a5.613,5.613,0,0,0-.385,1.547,21.566,21.566,0,0,0-.223,2.366q-.054,1.267-.108,2.477c-.04.81-.053,1.431-.053,1.874,0,.586-.023,1.158-.059,1.7s-.053,1.194-.053,1.932-.018,1.614-.054,2.643-.058,2.347-.058,3.966V62.219c0,1.619.018,2.938.058,3.967s.072,1.909.107,2.643.072,1.413.112,2.039.09,1.306.166,2.039a26.953,26.953,0,0,0,.492,3.47,3.62,3.62,0,0,0,1.153,1.928,4.644,4.644,0,0,0,2.473.988,22.935,22.935,0,0,0,3.243.224l.55.55.219,1.426ZM446.848,12.146a5.37,5.37,0,0,1,1.485-3.792,4.82,4.82,0,0,1,3.68-1.6,5.166,5.166,0,0,1,3.792,1.6,5.166,5.166,0,0,1,1.6,3.792,4.82,4.82,0,0,1-1.6,3.68,5.37,5.37,0,0,1-3.792,1.485,5.073,5.073,0,0,1-5.165-5.165Z"/><path class="b5d309e4-5bfb-4639-9e3f-545bc9f3fec9" d="M505.188,29.287a28.151,28.151,0,0,1,11.538,2.254,25.338,25.338,0,0,1,8.519,6.046,26.132,26.132,0,0,1,5.273,8.739,29.752,29.752,0,0,1,.165,20,23.3,23.3,0,0,1-5.053,8.349,25.255,25.255,0,0,1-8.466,5.827,32.7,32.7,0,0,1-23.849-.112,24.836,24.836,0,0,1-8.515-6.041,24.573,24.573,0,0,1-5-8.52,29.95,29.95,0,0,1-1.65-9.838,28.067,28.067,0,0,1,1.869-10.219,25.928,25.928,0,0,1,5.331-8.519,24.821,24.821,0,0,1,8.461-5.822A28.574,28.574,0,0,1,505.188,29.287Zm.108,49.13a17.068,17.068,0,0,0,8.134-1.87,17.3,17.3,0,0,0,5.823-4.946,21.829,21.829,0,0,0,3.461-6.976,28.191,28.191,0,0,0,1.158-8.081,27,27,0,0,0-1.265-8.023,24.147,24.147,0,0,0-3.681-7.307,19.625,19.625,0,0,0-5.934-5.277,15.976,15.976,0,0,0-8.135-2.03,16.828,16.828,0,0,0-8.3,1.923,17.548,17.548,0,0,0-5.715,5,21.475,21.475,0,0,0-3.349,7.035,29.378,29.378,0,0,0-1.1,7.911,26.672,26.672,0,0,0,1.265,8.081,24.114,24.114,0,0,0,3.681,7.253,19.488,19.488,0,0,0,5.934,5.273A15.7,15.7,0,0,0,505.3,78.417Z"/><path class="b5d309e4-5bfb-4639-9e3f-545bc9f3fec9" d="M298.707,184.706H264.893l-.355-.121.355-4.541.482-.477h1.312a10.915,10.915,0,0,0,5.436-1.137q1.976-1.131,1.974-4.6l-2.631-39.069c-.16-1.833-.257-3.423-.3-4.779a27.466,27.466,0,0,0-.54-4.42q-.714,2.153-2.27,6.092t-3.525,9.019q-1.969,5.084-4.239,10.817T256.055,162.9q-2.275,5.673-4.245,10.871t-3.4,9.023h-9.8L217.7,125.917a38.977,38.977,0,0,1-.238,4.721q-.242,1.852-.477,4.721l-1.434,19.593q-.242,3.945-.418,6.515t-.243,4.361c-.039,1.191-.059,2.231-.059,3.106v2.626a10.2,10.2,0,0,0,.778,4.779,6.747,6.747,0,0,0,1.731,2.032,3.5,3.5,0,0,0,2.212,1.075q1.254.123,3.165.121l.477.477.359,4.541-.238.476q-.839,0-2.45-.058l-3.287-.117q-1.669-.066-3.281-.121t-2.451-.059H191.534l-.239-.121.355-4.541.72-.477a31.913,31.913,0,0,0,3.466-.18,5.971,5.971,0,0,0,2.864-1.016,13.1,13.1,0,0,0,1.915-2.149,12,12,0,0,0,1.551-4.662c.161-.953.36-2.271.6-3.943s.516-4.5.837-8.484l1.672-21.863q.357-4.179.54-7.05t.238-4.9c.039-1.351.078-2.508.117-3.461s.063-1.911.063-2.869q0-3.463-1.016-4.779a10.825,10.825,0,0,0-1.974-2.032,4.475,4.475,0,0,0-2.747-1.075c-1.118-.077-2.309-.121-3.583-.121l-.6-.477-.36-4.541.238-.116h22.583c.559,0,1.294-.01,2.212-.034s1.77-.049,2.567-.088l.6.36a27.842,27.842,0,0,0,.895,4.658q.78,2.989,1.916,6.573t2.567,7.584q1.435,4.011,2.868,7.828l7.526,19.354q1.313,3.231,2.63,6.812t2.388,6.811a36.176,36.176,0,0,0,1.915-4.181q1.547-3.705,3.7-9.2t4.6-12.131q2.444-6.629,4.658-13.083t3.821-12.008a68.364,68.364,0,0,0,2.095-8.9l.594-.477c.636.039,1.317.073,2.032.088s1.395.034,2.032.034H294.05l.238.116-.36,4.541-.593.477a34.89,34.89,0,0,0-3.525.18,5.436,5.436,0,0,0-2.81,1.016,9.705,9.705,0,0,0-1.969,2.158A8.228,8.228,0,0,0,284.015,119v3.111q0,1.437.116,3.35t.3,4.667q.176,2.757.535,7.065l1.434,17.235q.357,4.31.6,7.006t.418,4.487c.122,1.2.219,2.212.3,3.048s.194,1.736.354,2.694a11.375,11.375,0,0,0,1.435,4.789,9.5,9.5,0,0,0,1.91,2.032,4.055,4.055,0,0,0,2.81.958h3.642l.6.491.36,4.648Z"/><path class="b5d309e4-5bfb-4639-9e3f-545bc9f3fec9" d="M337.859,183.51a14.206,14.206,0,0,0,.534-3.107,31.442,31.442,0,0,1,.54-3.7l-.122-.36a29.005,29.005,0,0,1-3.286,3.466,24.247,24.247,0,0,1-4.118,2.99,23.041,23.041,0,0,1-4.842,2.091,18.778,18.778,0,0,1-5.436.773,19.766,19.766,0,0,1-7.526-1.322,15.969,15.969,0,0,1-5.377-3.486,14.768,14.768,0,0,1-3.287-5.052,16.286,16.286,0,0,1-1.133-6.019,15.975,15.975,0,0,1,2.028-8.177,16.537,16.537,0,0,1,5.377-5.654,25.262,25.262,0,0,1,7.288-3.19,72.4,72.4,0,0,1,8.129-1.745,48.127,48.127,0,0,1,7.166-.6h5.975a46.319,46.319,0,0,0-.476-5.844,16.945,16.945,0,0,0-.958-3.554,6.444,6.444,0,0,0-3.525-3.437,15,15,0,0,0-5.8-1.021,34.4,34.4,0,0,0-4.361.3,17.287,17.287,0,0,0-4.361,1.128,10.737,10.737,0,0,0-3.525,2.324,6.1,6.1,0,0,0-1.731,3.865l-.481.355h-3.821l-1.075-11.2.36-.715a8.811,8.811,0,0,1,2.747-1.556,42.462,42.462,0,0,1,4.9-1.614,61.026,61.026,0,0,1,6.276-1.313,43.884,43.884,0,0,1,6.87-.539,32.237,32.237,0,0,1,8.722,1.137,20.11,20.11,0,0,1,6.986,3.4,16.065,16.065,0,0,1,4.605,5.678,17.839,17.839,0,0,1,1.672,7.944q0,4.9-.063,8.363t-.175,6.451q-.124,2.991-.18,5.8c-.044,1.871-.063,3.967-.063,6.276a21.934,21.934,0,0,0,.6,3.943,3.936,3.936,0,0,0,1.2,1.911,4.593,4.593,0,0,0,2.926,1.133q1.969.181,3.647.179l.355.477.243,4.064-.122.477a27.159,27.159,0,0,0-4.657-.355H344.908q-3.346,0-6.335.238Zm0-12.9c.238-.4.5-.875.773-1.434a5.731,5.731,0,0,0,.539-2.033l.6-10.156H338.7a55.494,55.494,0,0,0-7.288.477,22.657,22.657,0,0,0-6.452,1.794,11.93,11.93,0,0,0-4.662,3.7,10.088,10.088,0,0,0-1.794,6.214,7.716,7.716,0,0,0,1.614,5.139,5.41,5.41,0,0,0,4.361,1.91,16.491,16.491,0,0,0,4.123-.539,22.31,22.31,0,0,0,3.884-1.371,20.735,20.735,0,0,0,3.224-1.853A11.979,11.979,0,0,0,337.859,170.607Z"/><path class="b5d309e4-5bfb-4639-9e3f-545bc9f3fec9" d="M409.9,174.069a27.823,27.823,0,0,1-8.007,8.367q-4.777,3.224-12.067,3.223a25.337,25.337,0,0,1-6.515-.836,17.9,17.9,0,0,1-5.732-2.626,16.911,16.911,0,0,1-4.483-4.72,20.063,20.063,0,0,1-2.747-7.108c-.16-.72-.3-1.512-.418-2.392a32.457,32.457,0,0,1-.238-3.4q-.066-2.093-.121-5.138t-.059-7.59V141.091a6.28,6.28,0,0,0-.6-2.625,6.388,6.388,0,0,0-.958-1.673,4.534,4.534,0,0,0-2.985-1.672,27.753,27.753,0,0,0-3.7-.239l-.36-.481v-4.06l.36-.481h11.712a37.574,37.574,0,0,0,5.494-.355l4.181-.6.719,2.271a5.384,5.384,0,0,0-.36,1.731c-.077.836-.16,1.73-.238,2.688s-.121,1.872-.121,2.747v2.032q0,1.554-.059,3.763t-.121,4.541q-.058,2.334-.117,4.483c-.044,1.434-.058,2.625-.058,3.583q0,3.107.238,6.272a30.669,30.669,0,0,0,.953,5.795,11.794,11.794,0,0,0,3.646,6.155,10.7,10.7,0,0,0,6.87,1.969,16.267,16.267,0,0,0,6.393-1.191,19.772,19.772,0,0,0,4.838-2.869,16.861,16.861,0,0,0,3.345-3.646,11.081,11.081,0,0,0,1.672-3.525V153.761q0-5.5-.175-8.484c-.121-1.993-.262-3.544-.423-4.663a10.175,10.175,0,0,0-.656-2.508,4.471,4.471,0,0,0-.773-1.313,5.216,5.216,0,0,0-3.35-1.672,28.733,28.733,0,0,0-3.223-.239l-.477-.481v-4.06l.477-.481H415.28a18.551,18.551,0,0,0,3.462-.272l4.181-.681.72,2.271a73.286,73.286,0,0,0-.837,9.077q-.123,2.989-.179,4.842t-.059,3.044v12.908q0,6.57.355,11.59a25.937,25.937,0,0,0,.6,3.642,4.255,4.255,0,0,0,1.318,2.212,4.506,4.506,0,0,0,2.508,1.133,28.145,28.145,0,0,0,3.462.179l.481.477.239,4.064-.239.36a34,34,0,0,0-4.424-.3H415.757c-2.149,0-4.225.1-6.214.3l-.719-2.392c.243-.875.5-2.047.778-3.525s.5-2.965.656-4.477Z"/><path class="b5d309e4-5bfb-4639-9e3f-545bc9f3fec9" d="M470.245,184.706c-.559,0-1.395-.044-2.508-.121s-2.31-.117-3.583-.117H439.3l-.122-.243.244-4.06.354-.476c1.2,0,2.431-.063,3.7-.18a4.516,4.516,0,0,0,2.869-1.138,4.748,4.748,0,0,0,1.2-2.149,24.176,24.176,0,0,0,.6-3.7c.077-.555.136-1.114.175-1.673s.082-1.152.121-1.794.059-1.39.059-2.27V113.432c0-.914-.02-1.692-.059-2.329s-.082-1.215-.121-1.73-.1-1.138-.175-1.853a10.969,10.969,0,0,0-.72-2.27,5.174,5.174,0,0,0-.836-1.434,4.42,4.42,0,0,0-2.985-1.8,27.927,27.927,0,0,0-3.7-.238l-.476-.476V97.242l.476-.476h11.945a34.885,34.885,0,0,0,5.5-.384l4.181-.632.72,2.329a5.622,5.622,0,0,0-.418,1.492,17.177,17.177,0,0,0-.243,2.154c-.039.758-.078,1.512-.117,2.27s-.058,1.371-.058,1.853c0,.637-.025,1.215-.064,1.731s-.058,1.118-.058,1.794-.019,1.531-.058,2.567-.063,2.309-.063,3.821v46.362q0,2.392.063,3.885t.116,2.567c.039.714.078,1.376.122,1.969s.1,1.259.18,1.974a28.963,28.963,0,0,0,.535,3.763,3.9,3.9,0,0,0,1.254,2.09,4.288,4.288,0,0,0,2.689,1.138,34.945,34.945,0,0,0,3.524.18l.6.593.239,3.943Z"/><path class="b5d309e4-5bfb-4639-9e3f-545bc9f3fec9" d="M525.677,153.96l-2.868,2.188H487.444a11.269,11.269,0,0,0-.121,1.624v1.5a19.181,19.181,0,0,0,1.074,6.252,15.343,15.343,0,0,0,3.408,5.587,17.1,17.1,0,0,0,5.912,3.967,22.588,22.588,0,0,0,8.722,1.5,32.8,32.8,0,0,0,7.828-1.016,41.812,41.812,0,0,0,7.706-2.689l2.032.837v4.3l-1.2,1.318a30.962,30.962,0,0,1-8.421,4.3,34.779,34.779,0,0,1-12.008,2.027,30.623,30.623,0,0,1-11.533-2.09,26.069,26.069,0,0,1-8.96-5.912,26.94,26.94,0,0,1-5.853-9.082,31.4,31.4,0,0,1-2.091-11.708,31.912,31.912,0,0,1,2.149-11.95,27.488,27.488,0,0,1,5.917-9.2,27.054,27.054,0,0,1,8.838-5.976,27.742,27.742,0,0,1,10.935-2.153,33.8,33.8,0,0,1,6.991.836,22.261,22.261,0,0,1,7.468,3.17,23.094,23.094,0,0,1,6.451,6.568,27.36,27.36,0,0,1,3.943,11.173Zm-23.774-17.4a12.837,12.837,0,0,0-9.383,3.452,15.481,15.481,0,0,0-4.478,8.017H510.5a2.722,2.722,0,0,0,2.27-.9,2.992,2.992,0,0,0,.715-1.872,7.452,7.452,0,0,0-3.462-6.16A13.422,13.422,0,0,0,501.9,136.555Z"/><path class="b5d309e4-5bfb-4639-9e3f-545bc9f3fec9" d="M13.713,72.917a193.308,193.308,0,0,1,12.22,21.926,31.593,31.593,0,0,1,1.044,3.372A35.135,35.135,0,0,1,37.844,88.056a37.038,37.038,0,0,1,20.842-4.743,44.617,44.617,0,0,1-4.324-8.278c-2.069-6.009-9.57-30.821-13.957-41.415S19.317,30.566,9.612,36.084-.639,48.4.349,50.274,7.653,63.753,13.713,72.917Z"/><path class="b5d309e4-5bfb-4639-9e3f-545bc9f3fec9" d="M50.929,107.059c12.909-5.321,15.669,1.133,15.669,1.133a6.537,6.537,0,0,0,1.234-8.278,3.555,3.555,0,0,0-.64-3.894,111.271,111.271,0,0,1-7.207-10.15,37.034,37.034,0,0,0-20.841,4.742,35.1,35.1,0,0,0-10.867,10.159c1.051,3.851,2.4,9.491,2.75,10.474.493,1.379,1.772,3.251,2.957,3.5a3.254,3.254,0,0,1,1.873,1.379c1.527,3.1,6.305,3.3,6.305,3.3S38.018,112.38,50.929,107.059Z"/><path class="b5d309e4-5bfb-4639-9e3f-545bc9f3fec9" d="M147.654,134.7c-3.955-3.093-9.248-4.579-13.466-7.317-10.906-7.075,3.221-13.594,7.9-17.81,7.94-7.158,10.026-15.4,6.738-25.421-1.028-3.134-3.257-6.439-2.228-3.308,5.62,17.13-12.241,25.316-21.313,34.894-3.34,3.528-2.88,7.353.591,10.873,6.716,6.81,26.918,12.558,14.395,23.144-8.777,7.418-22.4,8.083-32.128,14.349a2.568,2.568,0,0,0-.146,4.049c9.555,6.682,22.783,5.073,32.2,11.141-16.24,4.887-33.275,1.7-49.975.169a3.473,3.473,0,0,0,.008-.875c-2.123-13.008-2.338-15.83-1.354-22.335s0-7.1,0-7.1C78.82,135.36,66.61,109.3,66.61,109.3c-1.627-2.709-8.082-3.857-16.063-.3-8.279,3.7-7.687,8.769-7.687,8.769l14.044,41.4c.494,1.33,2.76,1.97,2.76,1.97,13.157,3.794,23.881,17.089,25.311,19.158s2.464,1.282,2.464,1.282L72.1,147.225a4.863,4.863,0,0,1-3.07-2.8c-1.018-2.187-.614-4.53.9-5.236s3.571.494,4.59,2.681a4.682,4.682,0,0,1,.01,4.441l14.628,33.052-.322-.031c-3.264-.281.915,2.152,10.086,3.3,20.653,1.96,27.286,3.467,47.379-.032,2.021-.427,2.057-3.008.729-4.362-8.723-8.9-21.5-7-31.954-11.867C128.378,160.776,164.879,148.171,147.654,134.7Z"/></svg>