<?xml version="1.0" encoding="utf-8"?>
<!-- Generator: Adobe Illustrator 23.0.2, SVG Export Plug-In . SVG Version: 6.00 Build 0)  -->
<svg version="1.1" id="Layer_1" xmlns="http://www.w3.org/2000/svg" xmlns:xlink="http://www.w3.org/1999/xlink" x="0px" y="0px"
	 viewBox="0 0 176.2 181.2" style="enable-background:new 0 0 176.2 181.2;" xml:space="preserve">
<style type="text/css">
	.st0{fill:#FFFFFF;}
	.st1{fill:#231F20;}
</style>
<g>
	<path class="st1" d="M15.9,51.7c7,10.6,13.2,23.2,14.2,25.4c0.3,0.6,0.7,2.1,1.2,3.9c3.4-4.8,7.6-8.8,12.6-11.8
		c7.1-4.2,15.3-5.9,24.1-5.5c-2.1-3.4-4.1-6.9-5-9.6c-2.4-7-11.1-35.7-16.2-48C41.7-6.1,22.4,2.6,11.1,9S-0.7,23.3,0.4,25.5
		C1.5,27.6,8.9,41.1,15.9,51.7z"/>
	<path class="st1" d="M59,91.2c15-6.2,18.1,1.3,18.1,1.3c4.7-4.4,1.4-9.6,1.4-9.6s1.2-2.2-0.7-4.5c-1.2-1.4-5-6.4-8.3-11.8
		c-8.8-0.4-17,1.3-24.1,5.5c-5,2.9-9.2,6.9-12.6,11.8c1.2,4.5,2.8,11,3.2,12.1c0.6,1.6,2.1,3.8,3.4,4c1.4,0.3,2.2,1.6,2.2,1.6
		c1.8,3.6,7.3,3.8,7.3,3.8S44,97.4,59,91.2z"/>
	<path class="st1" d="M171,123.2c-4.6-3.6-10.7-5.3-15.6-8.5c-12.6-8.2,3.7-15.7,9.1-20.6c9.2-8.3,11.6-17.8,7.8-29.4
		c-1.2-3.6-3.8-7.5-2.6-3.8c6.5,19.8-14.2,29.3-24.7,40.4c-3.9,4.1-3.3,8.5,0.7,12.6c7.8,7.9,31.2,14.5,16.7,26.8
		c-10.2,8.6-25.9,9.4-37.2,16.6c-1.5,1-1.7,3.6-0.2,4.7c11.1,7.7,26.4,5.9,37.3,12.9c-18.8,5.7-38.5,2-57.9,0.2c0.1-0.5,0-1,0-1
		c-2.5-15.1-2.7-18.3-1.6-25.9c1.1-7.5,0-8.2,0-8.2c-11.6-16-25.8-46.2-25.8-46.2c-1.9-3.1-9.4-4.5-18.6-0.3
		c-9.6,4.3-8.9,10.2-8.9,10.2l16.3,47.9c0.6,1.5,3.2,2.3,3.2,2.3c15.2,4.4,27.7,19.8,29.3,22.2c1.7,2.4,2.9,1.5,2.9,1.5l-17.8-39.8
		c-1.4-0.3-2.7-1.5-3.6-3.2c-1.2-2.5-0.7-5.2,1-6.1c1.8-0.8,4.1,0.6,5.3,3.1c0.9,1.9,0.8,3.9,0,5.1l16.9,38.3c-0.1,0-0.2,0-0.4,0
		c-3.8-0.3,1.1,2.5,11.7,3.8c23.9,2.3,31.6,4,54.9,0c2.3-0.5,2.4-3.5,0.8-5.1c-10.1-10.3-24.9-8.1-37-13.7
		C148.7,153.4,190.9,138.8,171,123.2z"/>
</g>
</svg>
